<svg xmlns="http://www.w3.org/2000/svg" viewBox="0 0 640 360" width="640" height="360" role="img" aria-label="Power BI dashboard preview">
  <rect width="640" height="360" fill="#f3f4f7"/>
  <rect x="0" y="0" width="86" height="360" fill="#23252b"/>
  <rect x="18" y="26" width="50" height="6" rx="3" fill="#4b4e57"/>
  <rect x="18" y="58" width="42" height="5" rx="2.5" fill="#3a3d45"/>
  <rect x="18" y="76" width="50" height="5" rx="2.5" fill="#3a3d45"/>
  <rect x="18" y="94" width="36" height="5" rx="2.5" fill="#3a3d45"/>
  <rect x="18" y="112" width="46" height="5" rx="2.5" fill="#3a3d45"/>

  <rect x="112" y="30" width="150" height="12" rx="6" fill="#60646f"/>
  <rect x="112" y="52" width="96" height="7" rx="3.5" fill="#c3c7d0"/>

  <g fill="#ffffff" stroke="#dfe1e6">
    <rect x="112" y="84" width="150" height="66" rx="8"/>
    <rect x="278" y="84" width="150" height="66" rx="8"/>
    <rect x="444" y="84" width="150" height="66" rx="8"/>
  </g>
  <rect x="128" y="102" width="46" height="6" rx="3" fill="#c3c7d0"/>
  <rect x="128" y="118" width="72" height="16" rx="4" fill="#2f5fd0"/>
  <rect x="294" y="102" width="46" height="6" rx="3" fill="#c3c7d0"/>
  <rect x="294" y="118" width="60" height="16" rx="4" fill="#2f5fd0" opacity=".7"/>
  <rect x="460" y="102" width="46" height="6" rx="3" fill="#c3c7d0"/>
  <rect x="460" y="118" width="66" height="16" rx="4" fill="#2f5fd0" opacity=".45"/>

  <rect x="112" y="170" width="290" height="160" rx="8" fill="#ffffff" stroke="#dfe1e6"/>
  <rect x="130" y="188" width="80" height="6" rx="3" fill="#c3c7d0"/>
  <g fill="#2f5fd0">
    <rect x="134" y="272" width="22" height="40" rx="3" opacity=".85"/>
    <rect x="166" y="248" width="22" height="64" rx="3" opacity=".85"/>
    <rect x="198" y="226" width="22" height="86" rx="3" opacity=".85"/>
    <rect x="230" y="256" width="22" height="56" rx="3" opacity=".85"/>
    <rect x="262" y="212" width="22" height="100" rx="3" opacity=".85"/>
    <rect x="294" y="240" width="22" height="72" rx="3" opacity=".85"/>
    <rect x="326" y="264" width="22" height="48" rx="3" opacity=".85"/>
    <rect x="358" y="230" width="22" height="82" rx="3" opacity=".85"/>
  </g>

  <rect x="418" y="170" width="176" height="160" rx="8" fill="#ffffff" stroke="#dfe1e6"/>
  <rect x="436" y="188" width="66" height="6" rx="3" fill="#c3c7d0"/>
  <circle cx="506" cy="256" r="48" fill="#e6ebf7"/>
  <path d="M506 208 A48 48 0 0 1 549 283 L506 256 Z" fill="#2f5fd0"/>
  <path d="M549 283 A48 48 0 0 1 470 296 L506 256 Z" fill="#2f5fd0" opacity=".55"/>
  <circle cx="506" cy="256" r="22" fill="#ffffff"/>
</svg>
